<?xml version="1.0" standalone="no"?>
<!DOCTYPE svg PUBLIC "-//W3C//DTD SVG 20010904//EN"
 "http://www.w3.org/TR/2001/REC-SVG-20010904/DTD/svg10.dtd">
<svg version="1.0" xmlns="http://www.w3.org/2000/svg"
 width="512.000000pt" height="512.000000pt" viewBox="0 0 512.000000 512.000000"
 preserveAspectRatio="xMidYMid meet">
<metadata>
Created by potrace 1.11, written by Peter Selinger 2001-2013
</metadata>
<g transform="translate(0.000000,512.000000) scale(0.100000,-0.100000)"
fill="#000000" stroke="none">
<path d="M415 5110 c-183 -38 -330 -170 -391 -350 -18 -53 -19 -134 -19 -2200
0 -2066 1 -2147 19 -2200 52 -154 168 -274 322 -332 l59 -23 2155 0 2155 0 59
23 c154 58 270 178 322 332 18 53 19 134 19 2200 0 2066 -1 2147 -19 2200 -52
154 -168 274 -322 332 l-59 23 -2130 1 c-1172 1 -2148 -2 -2170 -6z m3125
-1203 l0 -94 -350 -542 c-193 -298 -350 -544 -350 -546 0 -3 140 -5 310 -5
l310 0 0 -90 0 -90 -372 0 -373 0 -375 -581 c-206 -320 -386 -599 -399 -621
l-24 -40 514 5 c513 4 678 13 900 50 l72 12 34 145 c18 80 47 205 64 278 l31
132 74 0 c52 0 74 -4 74 -12 0 -27 -51 -716 -56 -756 l-5 -42 -1087 2 -1087 3
-3 98 -3 98 396 610 c217 335 395 612 395 614 0 3 -139 5 -310 5 l-310 0 0 90
0 90 370 0 369 0 17 23 c9 12 168 256 353 542 l337 520 -385 3 c-378 3 -682
-8 -811 -29 -35 -5 -65 -11 -66 -12 -1 -1 -17 -101 -34 -222 -17 -121 -34
-223 -36 -227 -3 -5 -36 -8 -75 -8 l-69 0 0 345 0 345 980 0 980 0 0 -93z"/>
</g>
</svg>
